<svg width="16" height="16" viewBox="0 0 16 16" fill="none" xmlns="http://www.w3.org/2000/svg">
<path d="M8.52324 13.5138C10.8766 13.5138 13.0699 12.1271 14.5966 9.72709C15.1966 8.78709 15.1966 7.20709 14.5966 6.26709C13.0699 3.86709 10.8766 2.48042 8.52324 2.48042C6.16991 2.48042 3.97658 3.86709 2.44991 6.26709C1.84991 7.20709 1.84991 8.78709 2.44991 9.72709C3.97658 12.1271 6.16991 13.5138 8.52324 13.5138Z" fill="#707070"/>
<path d="M10.91 7.99992C10.91 9.31992 9.84333 10.3866 8.52333 10.3866C7.20332 10.3866 6.13666 9.31992 6.13666 7.99992C6.13666 6.67992 7.20332 5.61325 8.52333 5.61325C9.84333 5.61325 10.91 6.67992 10.91 7.99992Z" stroke="white" stroke-width="0.379808" stroke-linecap="round" stroke-linejoin="round"/>
</svg>
