<svg width="16" height="16" viewBox="0 0 16 16" fill="none" xmlns="http://www.w3.org/2000/svg">
<path d="M5.99995 14.6667H9.99995C13.3333 14.6667 14.6666 13.3333 14.6666 10V8.66667C14.6666 5.33333 13.3333 4 9.99995 4H5.99995C2.66662 4 1.33328 5.33333 1.33328 8.66667V10C1.33328 13.3333 2.66662 14.6667 5.99995 14.6667Z" fill="#707070"/>
<path d="M6.37937 8.3069L4.34604 10.3402" stroke="white" stroke-width="0.5" stroke-miterlimit="10" stroke-linecap="round" stroke-linejoin="round"/>
<path d="M4.36612 8.32697L6.39945 10.3603" stroke="white" stroke-width="0.5" stroke-miterlimit="10" stroke-linecap="round" stroke-linejoin="round"/>
<path d="M9.02008 9.33372H9.02908" stroke="white" stroke-width="0.5" stroke-miterlimit="10" stroke-linecap="round" stroke-linejoin="round"/>
<path d="M11.6474 9.33372H11.6564" stroke="white" stroke-width="0.5" stroke-miterlimit="10" stroke-linecap="round" stroke-linejoin="round"/>
<path d="M10.3326 10.6549V10.6406" stroke="white" stroke-width="0.5" stroke-miterlimit="10" stroke-linecap="round" stroke-linejoin="round"/>
<path d="M10.3326 8.02763V8.01331" stroke="white" stroke-width="0.5" stroke-miterlimit="10" stroke-linecap="round" stroke-linejoin="round"/>
<path d="M8.67322 1.33334L8.66655 2.00668C8.65989 2.37334 8.36655 2.66668 7.99989 2.66668H7.97989C7.61322 2.66668 7.31989 2.96668 7.31989 3.33334C7.31989 3.70001 7.61989 4.00001 7.98655 4.00001H8.65322" stroke="#707070" stroke-width="0.882692" stroke-linecap="round" stroke-linejoin="round"/>
</svg>
