<svg width="16" height="16" viewBox="0 0 16 16" fill="none" xmlns="http://www.w3.org/2000/svg">
<path d="M9.15522 2.34035L10.3286 4.68701C10.4886 5.01368 10.9152 5.32701 11.2752 5.38701L13.4019 5.74035C14.7619 5.96701 15.0819 6.95368 14.1019 7.92701L12.4486 9.58035C12.1686 9.86035 12.0152 10.4003 12.1019 10.787L12.5752 12.8337C12.9486 14.4537 12.0886 15.0803 10.6552 14.2337L8.66189 13.0537C8.30189 12.8403 7.70856 12.8403 7.34189 13.0537L5.34856 14.2337C3.92189 15.0803 3.05523 14.447 3.42856 12.8337L3.90189 10.787C3.98856 10.4003 3.83523 9.86035 3.55523 9.58035L1.90189 7.92701C0.928559 6.95368 1.24189 5.96701 2.60189 5.74035L4.72856 5.38701C5.08189 5.32701 5.50856 5.01368 5.66856 4.68701L6.84189 2.34035C7.48189 1.06701 8.52189 1.06701 9.15522 2.34035Z" fill="#707070"/>
</svg>
