<svg width="16" height="16" viewBox="0 0 16 16" fill="none" xmlns="http://www.w3.org/2000/svg">
<path d="M8.14383 13H3.85617C1.71235 13 1 11.6283 1 10.25V4.75C1 2.68587 1.71235 2 3.85617 2H8.14383C10.2877 2 11 2.68587 11 4.75V10.25C11 12.3141 10.2809 13 8.14383 13Z" fill="#707070"/>
<path d="M13.1141 10.7085L11 9.48209V5.51354L13.1141 4.28713C14.1483 3.68965 15 4.05443 15 5.10474V9.89718C15 10.9475 14.1483 11.3123 13.1141 10.7085Z" fill="#707070"/>
<path d="M7.69769 7.17647C8.24998 7.17647 8.69769 6.72875 8.69769 6.17647C8.69769 5.62418 8.24998 5.17647 7.69769 5.17647C7.14541 5.17647 6.69769 5.62418 6.69769 6.17647C6.69769 6.72875 7.14541 7.17647 7.69769 7.17647Z" stroke="white" stroke-width="0.882692" stroke-linecap="round" stroke-linejoin="round"/>
</svg>
